{
	"asset":{
		"generator":"Khronos glTF Blender I/O v4.2.60",
		"version":"2.0"
	},
	"scene":0,
	"scenes":[
		{
			"name":"Scene",
			"nodes":[
				2
			]
		}
	],
	"nodes":[
		{
			"mesh":0,
			"name":"Chair1_Metal028_2K_0"
		},
		{
			"mesh":1,
			"name":"Chair1_Wood049_2K_0"
		},
		{
			"children":[
				0,
				1
			],
			"name":"Chair1",
			"rotation":[
				-0.70710688829422,
				0,
				0,
				0.7071066498756409
			]
		}
	],
	"materials":[
		{
			"doubleSided":true,
			"name":"Metal028_2K",
			"normalTexture":{
				"index":0
			},
			"pbrMetallicRoughness":{
				"baseColorTexture":{
					"index":1
				},
				"metallicRoughnessTexture":{
					"index":2
				}
			}
		},
		{
			"doubleSided":true,
			"name":"Wood049_2K",
			"normalTexture":{
				"index":3
			},
			"pbrMetallicRoughness":{
				"baseColorTexture":{
					"index":4
				},
				"metallicFactor":0,
				"metallicRoughnessTexture":{
					"index":5
				}
			}
		},
		{
			"doubleSided":true,
			"name":"Outline",
			"pbrMetallicRoughness":{
				"baseColorFactor":[
					0,
					0,
					0,
					1
				],
				"metallicFactor":0,
				"roughnessFactor":0.5
			}
		}
	],
	"meshes":[
		{
			"name":"Chair1_Metal028_2K_0",
			"primitives":[
				{
					"attributes":{
						"POSITION":0,
						"NORMAL":1,
						"TEXCOORD_0":2
					},
					"indices":3,
					"material":0
				}
			]
		},
		{
			"name":"Chair1_Wood049_2K_0",
			"primitives":[
				{
					"attributes":{
						"POSITION":4,
						"NORMAL":5,
						"TEXCOORD_0":6
					},
					"indices":7,
					"material":1
				},
				{
					"attributes":{
						"POSITION":8,
						"NORMAL":9,
						"TEXCOORD_0":10
					},
					"indices":11,
					"material":2
				}
			]
		}
	],
	"textures":[
		{
			"sampler":0,
			"source":0
		},
		{
			"sampler":0,
			"source":1
		},
		{
			"sampler":0,
			"source":2
		},
		{
			"sampler":0,
			"source":3
		},
		{
			"sampler":0,
			"source":4
		},
		{
			"sampler":0,
			"source":5
		}
	],
	"images":[
		{
			"mimeType":"image/png",
			"name":"Metal028_2K_normal",
			"uri":"Metal028_2K_normal.png"
		},
		{
			"mimeType":"image/png",
			"name":"Metal028_2K_baseColor",
			"uri":"Metal028_2K_baseColor.png"
		},
		{
			"mimeType":"image/png",
			"name":"Metal028_2K_metallicRoughness",
			"uri":"Metal028_2K_metallicRoughness.png"
		},
		{
			"mimeType":"image/png",
			"name":"Wood049_2K_normal",
			"uri":"Wood049_2K_normal.png"
		},
		{
			"mimeType":"image/png",
			"name":"Wood049_2K_baseColor",
			"uri":"Wood049_2K_baseColor.png"
		},
		{
			"mimeType":"image/png",
			"name":"Wood049_2K_metallicRoughness",
			"uri":"Wood049_2K_metallicRoughness.png"
		}
	],
	"accessors":[
		{
			"bufferView":0,
			"componentType":5126,
			"count":440,
			"max":[
				0.2080468088388443,
				0.20691001415252686,
				0.3452288806438446
			],
			"min":[
				-0.20984002947807312,
				-0.20790182054042816,
				-0.5661635398864746
			],
			"type":"VEC3"
		},
		{
			"bufferView":1,
			"componentType":5126,
			"count":440,
			"type":"VEC3"
		},
		{
			"bufferView":2,
			"componentType":5126,
			"count":440,
			"type":"VEC2"
		},
		{
			"bufferView":3,
			"componentType":5123,
			"count":684,
			"type":"SCALAR"
		},
		{
			"bufferView":4,
			"componentType":5126,
			"count":168,
			"max":[
				0.19317081570625305,
				0.20000000298023224,
				0.34431761503219604
			],
			"min":[
				-0.17500002682209015,
				-0.2000001072883606,
				-0.010000050067901611
			],
			"type":"VEC3"
		},
		{
			"bufferView":5,
			"componentType":5126,
			"count":168,
			"type":"VEC3"
		},
		{
			"bufferView":6,
			"componentType":5126,
			"count":168,
			"type":"VEC2"
		},
		{
			"bufferView":7,
			"componentType":5123,
			"count":252,
			"type":"SCALAR"
		},
		{
			"bufferView":8,
			"componentType":5126,
			"count":672,
			"max":[
				0.19317081570625305,
				0.20000000298023224,
				0.34431761503219604
			],
			"min":[
				-0.17500002682209015,
				-0.2000001072883606,
				-0.010000050067901611
			],
			"type":"VEC3"
		},
		{
			"bufferView":9,
			"componentType":5126,
			"count":672,
			"type":"VEC3"
		},
		{
			"bufferView":10,
			"componentType":5126,
			"count":672,
			"type":"VEC2"
		},
		{
			"bufferView":11,
			"componentType":5123,
			"count":1008,
			"type":"SCALAR"
		}
	],
	"bufferViews":[
		{
			"buffer":0,
			"byteLength":5280,
			"byteOffset":0,
			"target":34962
		},
		{
			"buffer":0,
			"byteLength":5280,
			"byteOffset":5280,
			"target":34962
		},
		{
			"buffer":0,
			"byteLength":3520,
			"byteOffset":10560,
			"target":34962
		},
		{
			"buffer":0,
			"byteLength":1368,
			"byteOffset":14080,
			"target":34963
		},
		{
			"buffer":0,
			"byteLength":2016,
			"byteOffset":15448,
			"target":34962
		},
		{
			"buffer":0,
			"byteLength":2016,
			"byteOffset":17464,
			"target":34962
		},
		{
			"buffer":0,
			"byteLength":1344,
			"byteOffset":19480,
			"target":34962
		},
		{
			"buffer":0,
			"byteLength":504,
			"byteOffset":20824,
			"target":34963
		},
		{
			"buffer":0,
			"byteLength":8064,
			"byteOffset":21328,
			"target":34962
		},
		{
			"buffer":0,
			"byteLength":8064,
			"byteOffset":29392,
			"target":34962
		},
		{
			"buffer":0,
			"byteLength":5376,
			"byteOffset":37456,
			"target":34962
		},
		{
			"buffer":0,
			"byteLength":2016,
			"byteOffset":42832,
			"target":34963
		}
	],
	"samplers":[
		{
			"magFilter":9729,
			"minFilter":9987
		}
	],
	"buffers":[
		{
			"byteLength":44848,
			"uri":"chair.bin"
		}
	]
}
