{
	"asset":{
		"generator":"Khronos glTF Blender I/O v4.2.60",
		"version":"2.0"
	},
	"scene":0,
	"scenes":[
		{
			"name":"Scene",
			"nodes":[
				25
			]
		}
	],
	"nodes":[
		{
			"mesh":0,
			"name":"SM_Rocks_01_RocksStylized_M_0"
		},
		{
			"children":[
				0
			],
			"name":"SM_Rocks_01"
		},
		{
			"mesh":1,
			"name":"SM_Rocks_02_RocksStylized_M_0"
		},
		{
			"children":[
				2
			],
			"name":"SM_Rocks_02"
		},
		{
			"mesh":2,
			"name":"SM_Rocks_03_RocksStylized_M_0"
		},
		{
			"children":[
				4
			],
			"name":"SM_Rocks_03"
		},
		{
			"mesh":3,
			"name":"SM_Rocks_04_RocksStylized_M_0"
		},
		{
			"children":[
				6
			],
			"name":"SM_Rocks_04"
		},
		{
			"mesh":4,
			"name":"SM_Rocks_05_RocksStylized_M_0"
		},
		{
			"children":[
				8
			],
			"name":"SM_Rocks_05"
		},
		{
			"mesh":5,
			"name":"SM_Rocks_06_RocksStylized_M_0"
		},
		{
			"children":[
				10
			],
			"name":"SM_Rocks_06"
		},
		{
			"mesh":6,
			"name":"SM_Rocks_07_RocksStylized_M_0"
		},
		{
			"children":[
				12
			],
			"name":"SM_Rocks_07"
		},
		{
			"mesh":7,
			"name":"SM_Rocks_08_RocksStylized_M_0"
		},
		{
			"children":[
				14
			],
			"name":"SM_Rocks_08"
		},
		{
			"mesh":8,
			"name":"SM_Rocks_09_RocksStylized_M_0"
		},
		{
			"children":[
				16
			],
			"name":"SM_Rocks_09"
		},
		{
			"mesh":9,
			"name":"SM_Rocks_10_RocksStylized_M_0"
		},
		{
			"children":[
				18
			],
			"name":"SM_Rocks_10"
		},
		{
			"mesh":10,
			"name":"SM_Rocks_11_RocksStylized_M_0"
		},
		{
			"children":[
				20
			],
			"name":"SM_Rocks_11"
		},
		{
			"children":[
				1,
				3,
				5,
				7,
				9,
				11,
				13,
				15,
				17,
				19,
				21
			],
			"name":"Rocks_Stylized",
			"translation":[
				-0.413238525390625,
				0,
				20.877721786499023
			]
		},
		{
			"children":[
				22
			],
			"name":"RootNode"
		},
		{
			"children":[
				23
			],
			"name":"7af451f6f2f248c0ad5bacc837d44676.fbx",
			"rotation":[
				0.70710688829422,
				0,
				0,
				0.7071066498756409
			],
			"scale":[
				0.009999999776482582,
				0.010000000707805157,
				0.010000000707805157
			]
		},
		{
			"children":[
				24
			],
			"name":"Sketchfab_model",
			"rotation":[
				-0.70710688829422,
				0,
				0,
				0.7071066498756409
			]
		}
	],
	"materials":[
		{
			"doubleSided":true,
			"name":"RocksStylized_M",
			"pbrMetallicRoughness":{
				"baseColorTexture":{
					"index":0
				},
				"metallicFactor":0,
				"roughnessFactor":0.88228839635849
			}
		},
		{
			"doubleSided":true,
			"name":"Outline"
		}
	],
	"meshes":[
		{
			"name":"SM_Rocks_01_RocksStylized_M_0",
			"primitives":[
				{
					"attributes":{
						"POSITION":0,
						"NORMAL":1,
						"TEXCOORD_0":2
					},
					"indices":3,
					"material":0
				}
			]
		},
		{
			"name":"SM_Rocks_02_RocksStylized_M_0",
			"primitives":[
				{
					"attributes":{
						"POSITION":4,
						"NORMAL":5,
						"TEXCOORD_0":6
					},
					"indices":7,
					"material":0
				},
				{
					"attributes":{
						"POSITION":8,
						"NORMAL":9,
						"TEXCOORD_0":10
					},
					"indices":11,
					"material":1
				}
			]
		},
		{
			"name":"SM_Rocks_03_RocksStylized_M_0",
			"primitives":[
				{
					"attributes":{
						"POSITION":12,
						"NORMAL":13,
						"TEXCOORD_0":14
					},
					"indices":15,
					"material":0
				}
			]
		},
		{
			"name":"SM_Rocks_04_RocksStylized_M_0",
			"primitives":[
				{
					"attributes":{
						"POSITION":16,
						"NORMAL":17,
						"TEXCOORD_0":18
					},
					"indices":19,
					"material":0
				},
				{
					"attributes":{
						"POSITION":20,
						"NORMAL":21,
						"TEXCOORD_0":22
					},
					"indices":23,
					"material":1
				}
			]
		},
		{
			"name":"SM_Rocks_05_RocksStylized_M_0",
			"primitives":[
				{
					"attributes":{
						"POSITION":24,
						"NORMAL":25,
						"TEXCOORD_0":26
					},
					"indices":27,
					"material":0
				}
			]
		},
		{
			"name":"SM_Rocks_06_RocksStylized_M_0",
			"primitives":[
				{
					"attributes":{
						"POSITION":28,
						"NORMAL":29,
						"TEXCOORD_0":30
					},
					"indices":31,
					"material":0
				}
			]
		},
		{
			"name":"SM_Rocks_07_RocksStylized_M_0",
			"primitives":[
				{
					"attributes":{
						"POSITION":32,
						"NORMAL":33,
						"TEXCOORD_0":34
					},
					"indices":35,
					"material":0
				}
			]
		},
		{
			"name":"SM_Rocks_08_RocksStylized_M_0",
			"primitives":[
				{
					"attributes":{
						"POSITION":36,
						"NORMAL":37,
						"TEXCOORD_0":38
					},
					"indices":39,
					"material":0
				}
			]
		},
		{
			"name":"SM_Rocks_09_RocksStylized_M_0",
			"primitives":[
				{
					"attributes":{
						"POSITION":40,
						"NORMAL":41,
						"TEXCOORD_0":42
					},
					"indices":43,
					"material":0
				}
			]
		},
		{
			"name":"SM_Rocks_10_RocksStylized_M_0",
			"primitives":[
				{
					"attributes":{
						"POSITION":44,
						"NORMAL":45,
						"TEXCOORD_0":46
					},
					"indices":47,
					"material":0
				}
			]
		},
		{
			"name":"SM_Rocks_11_RocksStylized_M_0",
			"primitives":[
				{
					"attributes":{
						"POSITION":48,
						"NORMAL":49,
						"TEXCOORD_0":50
					},
					"indices":51,
					"material":0
				}
			]
		}
	],
	"textures":[
		{
			"sampler":0,
			"source":0
		}
	],
	"images":[
		{
			"mimeType":"image/png",
			"name":"RocksStylized_M_baseColor",
			"uri":"RocksStylized_M_baseColor.png"
		}
	],
	"accessors":[
		{
			"bufferView":0,
			"componentType":5126,
			"count":151,
			"max":[
				26.427156448364258,
				32.4522590637207,
				123.10598754882812
			],
			"min":[
				-18.84183692932129,
				-9.999999974752427e-07,
				71.53838348388672
			],
			"type":"VEC3"
		},
		{
			"bufferView":1,
			"componentType":5126,
			"count":151,
			"type":"VEC3"
		},
		{
			"bufferView":2,
			"componentType":5126,
			"count":151,
			"type":"VEC2"
		},
		{
			"bufferView":3,
			"componentType":5123,
			"count":636,
			"type":"SCALAR"
		},
		{
			"bufferView":4,
			"componentType":5126,
			"count":141,
			"max":[
				161.52224731445312,
				54.76533889770508,
				34.547306060791016
			],
			"min":[
				102.11689758300781,
				0.8078319430351257,
				-29.558704376220703
			],
			"type":"VEC3"
		},
		{
			"bufferView":5,
			"componentType":5126,
			"count":141,
			"type":"VEC3"
		},
		{
			"bufferView":6,
			"componentType":5126,
			"count":141,
			"type":"VEC2"
		},
		{
			"bufferView":7,
			"componentType":5123,
			"count":618,
			"type":"SCALAR"
		},
		{
			"bufferView":8,
			"componentType":5126,
			"count":144,
			"max":[
				163.80186462402344,
				55.99123001098633,
				36.89599609375
			],
			"min":[
				99.98774719238281,
				-0.18551087379455566,
				-31.469139099121094
			],
			"type":"VEC3"
		},
		{
			"bufferView":9,
			"componentType":5126,
			"count":144,
			"type":"VEC3"
		},
		{
			"bufferView":10,
			"componentType":5126,
			"count":144,
			"type":"VEC2"
		},
		{
			"bufferView":11,
			"componentType":5123,
			"count":408,
			"type":"SCALAR"
		},
		{
			"bufferView":12,
			"componentType":5126,
			"count":860,
			"max":[
				-60.918113708496094,
				88.78302001953125,
				130.15707397460938
			],
			"min":[
				-279.327880859375,
				-9.999999974752427e-07,
				-30.681921005249023
			],
			"type":"VEC3"
		},
		{
			"bufferView":13,
			"componentType":5126,
			"count":860,
			"type":"VEC3"
		},
		{
			"bufferView":14,
			"componentType":5126,
			"count":860,
			"type":"VEC2"
		},
		{
			"bufferView":15,
			"componentType":5123,
			"count":4314,
			"type":"SCALAR"
		},
		{
			"bufferView":16,
			"componentType":5126,
			"count":426,
			"max":[
				96.72416687011719,
				168.53834533691406,
				-30.694026947021484
			],
			"min":[
				-91.34809875488281,
				0.9894605875015259,
				-187.42701721191406
			],
			"type":"VEC3"
		},
		{
			"bufferView":17,
			"componentType":5126,
			"count":426,
			"type":"VEC3"
		},
		{
			"bufferView":18,
			"componentType":5126,
			"count":426,
			"type":"VEC2"
		},
		{
			"bufferView":19,
			"componentType":5123,
			"count":1800,
			"type":"SCALAR"
		},
		{
			"bufferView":20,
			"componentType":5126,
			"count":478,
			"max":[
				86.04747009277344,
				166.55517578125,
				-37.84943389892578
			],
			"min":[
				-92.28485870361328,
				1.290207028388977,
				-188.30020141601562
			],
			"type":"VEC3"
		},
		{
			"bufferView":21,
			"componentType":5126,
			"count":478,
			"type":"VEC3"
		},
		{
			"bufferView":22,
			"componentType":5126,
			"count":478,
			"type":"VEC2"
		},
		{
			"bufferView":23,
			"componentType":5123,
			"count":1416,
			"type":"SCALAR"
		},
		{
			"bufferView":24,
			"componentType":5126,
			"count":243,
			"max":[
				280.15435791015625,
				114.46504974365234,
				39.08723831176758
			],
			"min":[
				190.411376953125,
				-9.999999974752427e-07,
				-51.18692398071289
			],
			"type":"VEC3"
		},
		{
			"bufferView":25,
			"componentType":5126,
			"count":243,
			"type":"VEC3"
		},
		{
			"bufferView":26,
			"componentType":5126,
			"count":243,
			"type":"VEC2"
		},
		{
			"bufferView":27,
			"componentType":5123,
			"count":948,
			"type":"SCALAR"
		},
		{
			"bufferView":28,
			"componentType":5126,
			"count":63,
			"max":[
				182.74827575683594,
				24.095783233642578,
				146.5447540283203
			],
			"min":[
				154.42977905273438,
				-1.0132789611816406e-06,
				110.26634979248047
			],
			"type":"VEC3"
		},
		{
			"bufferView":29,
			"componentType":5126,
			"count":63,
			"type":"VEC3"
		},
		{
			"bufferView":30,
			"componentType":5126,
			"count":63,
			"type":"VEC2"
		},
		{
			"bufferView":31,
			"componentType":5123,
			"count":168,
			"type":"SCALAR"
		},
		{
			"bufferView":32,
			"componentType":5126,
			"count":58,
			"max":[
				79.54537963867188,
				40.95867919921875,
				62.566402435302734
			],
			"min":[
				22.055347442626953,
				-9.999999974752427e-07,
				4.8603410720825195
			],
			"type":"VEC3"
		},
		{
			"bufferView":33,
			"componentType":5126,
			"count":58,
			"type":"VEC3"
		},
		{
			"bufferView":34,
			"componentType":5126,
			"count":58,
			"type":"VEC2"
		},
		{
			"bufferView":35,
			"componentType":5123,
			"count":162,
			"type":"SCALAR"
		},
		{
			"bufferView":36,
			"componentType":5126,
			"count":59,
			"max":[
				187.44061279296875,
				97.57673645019531,
				-63.4009895324707
			],
			"min":[
				131.15476989746094,
				-9.999999974752427e-07,
				-99.73908996582031
			],
			"type":"VEC3"
		},
		{
			"bufferView":37,
			"componentType":5126,
			"count":59,
			"type":"VEC3"
		},
		{
			"bufferView":38,
			"componentType":5126,
			"count":59,
			"type":"VEC2"
		},
		{
			"bufferView":39,
			"componentType":5123,
			"count":162,
			"type":"SCALAR"
		},
		{
			"bufferView":40,
			"componentType":5126,
			"count":65,
			"max":[
				-112.05550384521484,
				159.49526977539062,
				-57.49268341064453
			],
			"min":[
				-199.95700073242188,
				-9.999999974752427e-07,
				-131.89910888671875
			],
			"type":"VEC3"
		},
		{
			"bufferView":41,
			"componentType":5126,
			"count":65,
			"type":"VEC3"
		},
		{
			"bufferView":42,
			"componentType":5126,
			"count":65,
			"type":"VEC2"
		},
		{
			"bufferView":43,
			"componentType":5123,
			"count":204,
			"type":"SCALAR"
		},
		{
			"bufferView":44,
			"componentType":5126,
			"count":24,
			"max":[
				116.21643829345703,
				31.20622444152832,
				96.93885803222656
			],
			"min":[
				99.032470703125,
				-1.0000001111620804e-06,
				78.90663146972656
			],
			"type":"VEC3"
		},
		{
			"bufferView":45,
			"componentType":5126,
			"count":24,
			"type":"VEC3"
		},
		{
			"bufferView":46,
			"componentType":5126,
			"count":24,
			"type":"VEC2"
		},
		{
			"bufferView":47,
			"componentType":5123,
			"count":108,
			"type":"SCALAR"
		},
		{
			"bufferView":48,
			"componentType":5126,
			"count":27,
			"max":[
				-3.220587968826294,
				71.71635437011719,
				33.81190872192383
			],
			"min":[
				-38.36272430419922,
				-1.0000001111620804e-06,
				4.285192012786865
			],
			"type":"VEC3"
		},
		{
			"bufferView":49,
			"componentType":5126,
			"count":27,
			"type":"VEC3"
		},
		{
			"bufferView":50,
			"componentType":5126,
			"count":27,
			"type":"VEC2"
		},
		{
			"bufferView":51,
			"componentType":5123,
			"count":108,
			"type":"SCALAR"
		}
	],
	"bufferViews":[
		{
			"buffer":0,
			"byteLength":1812,
			"byteOffset":0,
			"target":34962
		},
		{
			"buffer":0,
			"byteLength":1812,
			"byteOffset":1812,
			"target":34962
		},
		{
			"buffer":0,
			"byteLength":1208,
			"byteOffset":3624,
			"target":34962
		},
		{
			"buffer":0,
			"byteLength":1272,
			"byteOffset":4832,
			"target":34963
		},
		{
			"buffer":0,
			"byteLength":1692,
			"byteOffset":6104,
			"target":34962
		},
		{
			"buffer":0,
			"byteLength":1692,
			"byteOffset":7796,
			"target":34962
		},
		{
			"buffer":0,
			"byteLength":1128,
			"byteOffset":9488,
			"target":34962
		},
		{
			"buffer":0,
			"byteLength":1236,
			"byteOffset":10616,
			"target":34963
		},
		{
			"buffer":0,
			"byteLength":1728,
			"byteOffset":11852,
			"target":34962
		},
		{
			"buffer":0,
			"byteLength":1728,
			"byteOffset":13580,
			"target":34962
		},
		{
			"buffer":0,
			"byteLength":1152,
			"byteOffset":15308,
			"target":34962
		},
		{
			"buffer":0,
			"byteLength":816,
			"byteOffset":16460,
			"target":34963
		},
		{
			"buffer":0,
			"byteLength":10320,
			"byteOffset":17276,
			"target":34962
		},
		{
			"buffer":0,
			"byteLength":10320,
			"byteOffset":27596,
			"target":34962
		},
		{
			"buffer":0,
			"byteLength":6880,
			"byteOffset":37916,
			"target":34962
		},
		{
			"buffer":0,
			"byteLength":8628,
			"byteOffset":44796,
			"target":34963
		},
		{
			"buffer":0,
			"byteLength":5112,
			"byteOffset":53424,
			"target":34962
		},
		{
			"buffer":0,
			"byteLength":5112,
			"byteOffset":58536,
			"target":34962
		},
		{
			"buffer":0,
			"byteLength":3408,
			"byteOffset":63648,
			"target":34962
		},
		{
			"buffer":0,
			"byteLength":3600,
			"byteOffset":67056,
			"target":34963
		},
		{
			"buffer":0,
			"byteLength":5736,
			"byteOffset":70656,
			"target":34962
		},
		{
			"buffer":0,
			"byteLength":5736,
			"byteOffset":76392,
			"target":34962
		},
		{
			"buffer":0,
			"byteLength":3824,
			"byteOffset":82128,
			"target":34962
		},
		{
			"buffer":0,
			"byteLength":2832,
			"byteOffset":85952,
			"target":34963
		},
		{
			"buffer":0,
			"byteLength":2916,
			"byteOffset":88784,
			"target":34962
		},
		{
			"buffer":0,
			"byteLength":2916,
			"byteOffset":91700,
			"target":34962
		},
		{
			"buffer":0,
			"byteLength":1944,
			"byteOffset":94616,
			"target":34962
		},
		{
			"buffer":0,
			"byteLength":1896,
			"byteOffset":96560,
			"target":34963
		},
		{
			"buffer":0,
			"byteLength":756,
			"byteOffset":98456,
			"target":34962
		},
		{
			"buffer":0,
			"byteLength":756,
			"byteOffset":99212,
			"target":34962
		},
		{
			"buffer":0,
			"byteLength":504,
			"byteOffset":99968,
			"target":34962
		},
		{
			"buffer":0,
			"byteLength":336,
			"byteOffset":100472,
			"target":34963
		},
		{
			"buffer":0,
			"byteLength":696,
			"byteOffset":100808,
			"target":34962
		},
		{
			"buffer":0,
			"byteLength":696,
			"byteOffset":101504,
			"target":34962
		},
		{
			"buffer":0,
			"byteLength":464,
			"byteOffset":102200,
			"target":34962
		},
		{
			"buffer":0,
			"byteLength":324,
			"byteOffset":102664,
			"target":34963
		},
		{
			"buffer":0,
			"byteLength":708,
			"byteOffset":102988,
			"target":34962
		},
		{
			"buffer":0,
			"byteLength":708,
			"byteOffset":103696,
			"target":34962
		},
		{
			"buffer":0,
			"byteLength":472,
			"byteOffset":104404,
			"target":34962
		},
		{
			"buffer":0,
			"byteLength":324,
			"byteOffset":104876,
			"target":34963
		},
		{
			"buffer":0,
			"byteLength":780,
			"byteOffset":105200,
			"target":34962
		},
		{
			"buffer":0,
			"byteLength":780,
			"byteOffset":105980,
			"target":34962
		},
		{
			"buffer":0,
			"byteLength":520,
			"byteOffset":106760,
			"target":34962
		},
		{
			"buffer":0,
			"byteLength":408,
			"byteOffset":107280,
			"target":34963
		},
		{
			"buffer":0,
			"byteLength":288,
			"byteOffset":107688,
			"target":34962
		},
		{
			"buffer":0,
			"byteLength":288,
			"byteOffset":107976,
			"target":34962
		},
		{
			"buffer":0,
			"byteLength":192,
			"byteOffset":108264,
			"target":34962
		},
		{
			"buffer":0,
			"byteLength":216,
			"byteOffset":108456,
			"target":34963
		},
		{
			"buffer":0,
			"byteLength":324,
			"byteOffset":108672,
			"target":34962
		},
		{
			"buffer":0,
			"byteLength":324,
			"byteOffset":108996,
			"target":34962
		},
		{
			"buffer":0,
			"byteLength":216,
			"byteOffset":109320,
			"target":34962
		},
		{
			"buffer":0,
			"byteLength":216,
			"byteOffset":109536,
			"target":34963
		}
	],
	"samplers":[
		{
			"magFilter":9729,
			"minFilter":9987
		}
	],
	"buffers":[
		{
			"byteLength":109752,
			"uri":"rocks.bin"
		}
	]
}
