{
	"asset":{
		"generator":"Khronos glTF Blender I/O v4.0.44",
		"version":"2.0"
	},
	"extensionsUsed":[
		"KHR_materials_unlit",
		"KHR_lights_punctual"
	],
	"extensionsRequired":[
		"KHR_lights_punctual"
	],
	"extensions":{
		"KHR_lights_punctual":{
			"lights":[
				{
					"color":[
						1,
						1,
						1
					],
					"intensity":683,
					"type":"directional",
					"name":"Light"
				},
				{
					"color":[
						1,
						1,
						1
					],
					"intensity":2732,
					"type":"directional",
					"name":"Light.001"
				}
			]
		}
	},
	"scene":0,
	"scenes":[
		{
			"name":"Scene",
			"nodes":[
				0,
				1,
				2,
				3,
				4
			]
		}
	],
	"nodes":[
		{
			"mesh":0,
			"name":"Particle Emiter"
		},
		{
			"extensions":{
				"KHR_lights_punctual":{
					"light":0
				}
			},
			"name":"Light",
			"rotation":[
				-0.36472898721694946,
				0.7033762335777283,
				0.3988676965236664,
				0.46167004108428955
			],
			"translation":[
				4.076245307922363,
				5.903861999511719,
				-1.0054539442062378
			]
		},
		{
			"mesh":1,
			"name":"Custom Normals"
		},
		{
			"extensions":{
				"KHR_lights_punctual":{
					"light":1
				}
			},
			"name":"Rim light",
			"rotation":[
				-0.1605929136276245,
				0.8678869605064392,
				0.38281160593032837,
				0.27283236384391785
			],
			"translation":[
				4.826172828674316,
				5.491185665130615,
				-5.878308296203613
			]
		},
		{
			"mesh":2,
			"name":"Follage"
		}
	],
	"materials":[
		{
			"alphaMode":"BLEND",
			"doubleSided":true,
			"extensions":{
				"KHR_materials_unlit":{}
			},
			"name":"Follage",
			"pbrMetallicRoughness":{
				"metallicFactor":0,
				"roughnessFactor":0.9
			}
		}
	],
	"meshes":[
		{
			"name":"Cube",
			"primitives":[
				{
					"attributes":{
						"POSITION":0,
						"NORMAL":1,
						"TEXCOORD_0":2
					},
					"indices":3,
					"material":0
				}
			]
		},
		{
			"name":"Cube.002",
			"primitives":[
				{
					"attributes":{
						"POSITION":4,
						"NORMAL":5,
						"TEXCOORD_0":6
					},
					"indices":7,
					"material":0
				}
			]
		},
		{
			"name":"Cube.001",
			"primitives":[
				{
					"attributes":{
						"POSITION":8,
						"NORMAL":9,
						"TEXCOORD_0":10
					},
					"indices":11,
					"material":0
				}
			]
		}
	],
	"accessors":[
		{
			"bufferView":0,
			"componentType":5126,
			"count":5611,
			"max":[
				2.5826473236083984,
				2.563979387283325,
				2.5324649810791016
			],
			"min":[
				-2.3634960651397705,
				-2.1742024421691895,
				-2.414501667022705
			],
			"type":"VEC3"
		},
		{
			"bufferView":1,
			"componentType":5126,
			"count":5611,
			"type":"VEC3"
		},
		{
			"bufferView":2,
			"componentType":5126,
			"count":5611,
			"type":"VEC2"
		},
		{
			"bufferView":3,
			"componentType":5123,
			"count":32400,
			"type":"SCALAR"
		},
		{
			"bufferView":4,
			"componentType":5126,
			"count":614,
			"max":[
				2.432546615600586,
				2.4280788898468018,
				2.390404224395752
			],
			"min":[
				-2.2653043270111084,
				-2.022148370742798,
				-2.3056178092956543
			],
			"type":"VEC3"
		},
		{
			"bufferView":5,
			"componentType":5126,
			"count":614,
			"type":"VEC3"
		},
		{
			"bufferView":6,
			"componentType":5126,
			"count":614,
			"type":"VEC2"
		},
		{
			"bufferView":7,
			"componentType":5123,
			"count":3240,
			"type":"SCALAR"
		},
		{
			"bufferView":8,
			"componentType":5126,
			"count":152000,
			"max":[
				3.0100607872009277,
				2.5328376293182373,
				2.5423598289489746
			],
			"min":[
				-2.343259334564209,
				-2.618527412414551,
				-2.45849609375
			],
			"type":"VEC3"
		},
		{
			"bufferView":9,
			"componentType":5126,
			"count":152000,
			"type":"VEC3"
		},
		{
			"bufferView":10,
			"componentType":5126,
			"count":152000,
			"type":"VEC2"
		},
		{
			"bufferView":11,
			"componentType":5125,
			"count":504000,
			"type":"SCALAR"
		}
	],
	"bufferViews":[
		{
			"buffer":0,
			"byteLength":67332,
			"byteOffset":0,
			"target":34962
		},
		{
			"buffer":0,
			"byteLength":67332,
			"byteOffset":67332,
			"target":34962
		},
		{
			"buffer":0,
			"byteLength":44888,
			"byteOffset":134664,
			"target":34962
		},
		{
			"buffer":0,
			"byteLength":64800,
			"byteOffset":179552,
			"target":34963
		},
		{
			"buffer":0,
			"byteLength":7368,
			"byteOffset":244352,
			"target":34962
		},
		{
			"buffer":0,
			"byteLength":7368,
			"byteOffset":251720,
			"target":34962
		},
		{
			"buffer":0,
			"byteLength":4912,
			"byteOffset":259088,
			"target":34962
		},
		{
			"buffer":0,
			"byteLength":6480,
			"byteOffset":264000,
			"target":34963
		},
		{
			"buffer":0,
			"byteLength":1824000,
			"byteOffset":270480,
			"target":34962
		},
		{
			"buffer":0,
			"byteLength":1824000,
			"byteOffset":2094480,
			"target":34962
		},
		{
			"buffer":0,
			"byteLength":1216000,
			"byteOffset":3918480,
			"target":34962
		},
		{
			"buffer":0,
			"byteLength":2016000,
			"byteOffset":5134480,
			"target":34963
		}
	],
	"buffers":[
		{
			"byteLength":7150480,
			"uri":"tree.bin"
		}
	]
}
