{
	"asset":{
		"generator":"Khronos glTF Blender I/O v4.2.60",
		"version":"2.0"
	},
	"scene":0,
	"scenes":[
		{
			"name":"Scene",
			"nodes":[
				3
			]
		}
	],
	"nodes":[
		{
			"mesh":0,
			"name":"Object_2"
		},
		{
			"mesh":1,
			"name":"Object_3"
		},
		{
			"children":[
				0,
				1
			],
			"name":"table.obj.cleaner.materialmerger.gles"
		},
		{
			"children":[
				2
			],
			"name":"Sketchfab_model",
			"rotation":[
				-0.70710688829422,
				0,
				0,
				0.7071066498756409
			],
			"scale":[
				0.005902801640331745,
				0.00590280257165432,
				0.00590280257165432
			]
		}
	],
	"materials":[
		{
			"doubleSided":true,
			"name":"New_Material",
			"pbrMetallicRoughness":{
				"baseColorTexture":{
					"index":0
				},
				"metallicFactor":0,
				"roughnessFactor":0.6000000238418579
			}
		},
		{
			"doubleSided":true,
			"name":"Outline"
		},
		{
			"doubleSided":true,
			"name":"New_Material__env_2_spec",
			"pbrMetallicRoughness":{
				"baseColorTexture":{
					"index":1
				},
				"metallicFactor":0,
				"roughnessFactor":0.6000000238418579
			}
		}
	],
	"meshes":[
		{
			"name":"Object_0",
			"primitives":[
				{
					"attributes":{
						"POSITION":0,
						"NORMAL":1,
						"TEXCOORD_0":2
					},
					"indices":3,
					"material":0
				},
				{
					"attributes":{
						"POSITION":4,
						"NORMAL":5,
						"TEXCOORD_0":6
					},
					"indices":7,
					"material":1
				}
			]
		},
		{
			"name":"Object_1",
			"primitives":[
				{
					"attributes":{
						"POSITION":8,
						"NORMAL":9,
						"TEXCOORD_0":10
					},
					"indices":11,
					"material":2
				},
				{
					"attributes":{
						"POSITION":12,
						"NORMAL":13,
						"TEXCOORD_0":14
					},
					"indices":15,
					"material":1
				}
			]
		}
	],
	"textures":[
		{
			"sampler":0,
			"source":0
		},
		{
			"sampler":0,
			"source":1
		}
	],
	"images":[
		{
			"mimeType":"image/jpeg",
			"name":"New_Material_baseColor",
			"uri":"New_Material_baseColor.jpg"
		},
		{
			"mimeType":"image/png",
			"name":"New_Material__env_2_spec_baseColor",
			"uri":"New_Material__env_2_spec_baseColor.png"
		}
	],
	"accessors":[
		{
			"bufferView":0,
			"componentType":5126,
			"count":60590,
			"max":[
				157.9078369140625,
				227.70640563964844,
				17.720439910888672
			],
			"min":[
				-184.99586486816406,
				-223.63873291015625,
				-48.1328010559082
			],
			"type":"VEC3"
		},
		{
			"bufferView":1,
			"componentType":5126,
			"count":60590,
			"type":"VEC3"
		},
		{
			"bufferView":2,
			"componentType":5126,
			"count":60590,
			"type":"VEC2"
		},
		{
			"bufferView":3,
			"componentType":5123,
			"count":240000,
			"type":"SCALAR"
		},
		{
			"bufferView":4,
			"componentType":5126,
			"count":1600,
			"max":[
				160.0897216796875,
				229.40176391601562,
				2.2375450134277344
			],
			"min":[
				-187.20204162597656,
				-225.32327270507812,
				-48.1328010559082
			],
			"type":"VEC3"
		},
		{
			"bufferView":5,
			"componentType":5126,
			"count":1600,
			"type":"VEC3"
		},
		{
			"bufferView":6,
			"componentType":5126,
			"count":1600,
			"type":"VEC2"
		},
		{
			"bufferView":7,
			"componentType":5123,
			"count":4800,
			"type":"SCALAR"
		},
		{
			"bufferView":8,
			"componentType":5126,
			"count":10705,
			"max":[
				145.11849975585938,
				212.81788635253906,
				16.26879119873047
			],
			"min":[
				-173.00550842285156,
				-208.09487915039062,
				-142.141357421875
			],
			"type":"VEC3"
		},
		{
			"bufferView":9,
			"componentType":5126,
			"count":10705,
			"type":"VEC3"
		},
		{
			"bufferView":10,
			"componentType":5126,
			"count":10705,
			"type":"VEC2"
		},
		{
			"bufferView":11,
			"componentType":5123,
			"count":54144,
			"type":"SCALAR"
		},
		{
			"bufferView":12,
			"componentType":5126,
			"count":5984,
			"max":[
				145.447998046875,
				213.1439971923828,
				16.78219985961914
			],
			"min":[
				-173.3350067138672,
				-208.4199981689453,
				-142.62899780273438
			],
			"type":"VEC3"
		},
		{
			"bufferView":13,
			"componentType":5126,
			"count":5984,
			"type":"VEC3"
		},
		{
			"bufferView":14,
			"componentType":5126,
			"count":5984,
			"type":"VEC2"
		},
		{
			"bufferView":15,
			"componentType":5123,
			"count":17940,
			"type":"SCALAR"
		}
	],
	"bufferViews":[
		{
			"buffer":0,
			"byteLength":727080,
			"byteOffset":0,
			"target":34962
		},
		{
			"buffer":0,
			"byteLength":727080,
			"byteOffset":727080,
			"target":34962
		},
		{
			"buffer":0,
			"byteLength":484720,
			"byteOffset":1454160,
			"target":34962
		},
		{
			"buffer":0,
			"byteLength":480000,
			"byteOffset":1938880,
			"target":34963
		},
		{
			"buffer":0,
			"byteLength":19200,
			"byteOffset":2418880,
			"target":34962
		},
		{
			"buffer":0,
			"byteLength":19200,
			"byteOffset":2438080,
			"target":34962
		},
		{
			"buffer":0,
			"byteLength":12800,
			"byteOffset":2457280,
			"target":34962
		},
		{
			"buffer":0,
			"byteLength":9600,
			"byteOffset":2470080,
			"target":34963
		},
		{
			"buffer":0,
			"byteLength":128460,
			"byteOffset":2479680,
			"target":34962
		},
		{
			"buffer":0,
			"byteLength":128460,
			"byteOffset":2608140,
			"target":34962
		},
		{
			"buffer":0,
			"byteLength":85640,
			"byteOffset":2736600,
			"target":34962
		},
		{
			"buffer":0,
			"byteLength":108288,
			"byteOffset":2822240,
			"target":34963
		},
		{
			"buffer":0,
			"byteLength":71808,
			"byteOffset":2930528,
			"target":34962
		},
		{
			"buffer":0,
			"byteLength":71808,
			"byteOffset":3002336,
			"target":34962
		},
		{
			"buffer":0,
			"byteLength":47872,
			"byteOffset":3074144,
			"target":34962
		},
		{
			"buffer":0,
			"byteLength":35880,
			"byteOffset":3122016,
			"target":34963
		}
	],
	"samplers":[
		{
			"magFilter":9729,
			"minFilter":9987
		}
	],
	"buffers":[
		{
			"byteLength":3157896,
			"uri":"untitled.bin"
		}
	]
}
