{
	"asset":{
		"generator":"Khronos glTF Blender I/O v4.0.44",
		"version":"2.0"
	},
	"scene":0,
	"scenes":[
		{
			"name":"Scene",
			"nodes":[
				4
			]
		}
	],
	"nodes":[
		{
			"mesh":0,
			"name":"Object_2"
		},
		{
			"mesh":1,
			"name":"Object_3"
		},
		{
			"mesh":2,
			"name":"Object_3.001"
		},
		{
			"children":[
				0,
				1,
				2
			],
			"name":"table.obj.cleaner.materialmerger.gles"
		},
		{
			"children":[
				3
			],
			"name":"Sketchfab_model",
			"rotation":[
				-0.70710688829422,
				0,
				0,
				0.7071066498756409
			],
			"scale":[
				0.005902801640331745,
				0.00590280257165432,
				0.00590280257165432
			]
		}
	],
	"materials":[
		{
			"alphaMode":"BLEND",
			"doubleSided":true,
			"name":"New_Material",
			"pbrMetallicRoughness":{
				"baseColorTexture":{
					"index":0
				},
				"metallicFactor":0,
				"roughnessFactor":0.6000000238418579
			}
		},
		{
			"doubleSided":true,
			"name":"Outline",
			"pbrMetallicRoughness":{}
		},
		{
			"alphaMode":"BLEND",
			"doubleSided":true,
			"name":"New_Material__env_2_spec",
			"pbrMetallicRoughness":{
				"baseColorTexture":{
					"index":1
				},
				"metallicFactor":0,
				"roughnessFactor":0.6000000238418579
			}
		}
	],
	"meshes":[
		{
			"name":"Object_0",
			"primitives":[
				{
					"attributes":{
						"POSITION":0,
						"NORMAL":1,
						"TEXCOORD_0":2
					},
					"indices":3,
					"material":0
				},
				{
					"attributes":{
						"POSITION":4,
						"NORMAL":5,
						"TEXCOORD_0":6
					},
					"indices":7,
					"material":1
				}
			]
		},
		{
			"name":"Object_1",
			"primitives":[
				{
					"attributes":{
						"POSITION":8,
						"NORMAL":9,
						"TEXCOORD_0":10
					},
					"indices":11,
					"material":2
				}
			]
		},
		{
			"name":"Object_1.001",
			"primitives":[
				{
					"attributes":{
						"POSITION":12,
						"NORMAL":13,
						"TEXCOORD_0":14
					},
					"indices":15,
					"material":1
				}
			]
		}
	],
	"textures":[
		{
			"sampler":0,
			"source":0
		},
		{
			"sampler":0,
			"source":1
		}
	],
	"images":[
		{
			"mimeType":"image/jpeg",
			"name":"New_Material_baseColor",
			"uri":"New_Material_baseColor.jpg"
		},
		{
			"mimeType":"image/png",
			"name":"New_Material__env_2_spec_baseColor",
			"uri":"New_Material__env_2_spec_baseColor.png"
		}
	],
	"accessors":[
		{
			"bufferView":0,
			"componentType":5126,
			"count":55473,
			"max":[
				157.9078369140625,
				227.70640563964844,
				17.720439910888672
			],
			"min":[
				-184.99586486816406,
				-223.63873291015625,
				-48.1328010559082
			],
			"type":"VEC3"
		},
		{
			"bufferView":1,
			"componentType":5126,
			"count":55473,
			"type":"VEC3"
		},
		{
			"bufferView":2,
			"componentType":5126,
			"count":55473,
			"type":"VEC2"
		},
		{
			"bufferView":3,
			"componentType":5123,
			"count":240000,
			"type":"SCALAR"
		},
		{
			"bufferView":4,
			"componentType":5126,
			"count":1600,
			"max":[
				160.0897216796875,
				229.4017791748047,
				2.2375423908233643
			],
			"min":[
				-187.20204162597656,
				-225.32327270507812,
				-48.1328010559082
			],
			"type":"VEC3"
		},
		{
			"bufferView":5,
			"componentType":5126,
			"count":1600,
			"type":"VEC3"
		},
		{
			"bufferView":6,
			"componentType":5126,
			"count":1600,
			"type":"VEC2"
		},
		{
			"bufferView":7,
			"componentType":5123,
			"count":4800,
			"type":"SCALAR"
		},
		{
			"bufferView":8,
			"componentType":5126,
			"count":10681,
			"max":[
				145.11849975585938,
				212.81788635253906,
				16.26879119873047
			],
			"min":[
				-173.00550842285156,
				-208.09487915039062,
				-142.141357421875
			],
			"type":"VEC3"
		},
		{
			"bufferView":9,
			"componentType":5126,
			"count":10681,
			"type":"VEC3"
		},
		{
			"bufferView":10,
			"componentType":5126,
			"count":10681,
			"type":"VEC2"
		},
		{
			"bufferView":11,
			"componentType":5123,
			"count":54144,
			"type":"SCALAR"
		},
		{
			"bufferView":12,
			"componentType":5126,
			"count":11952,
			"max":[
				145.57650756835938,
				213.27149963378906,
				17.041942596435547
			],
			"min":[
				-173.4635009765625,
				-208.54849243164062,
				-143.01809692382812
			],
			"type":"VEC3"
		},
		{
			"bufferView":13,
			"componentType":5126,
			"count":11952,
			"type":"VEC3"
		},
		{
			"bufferView":14,
			"componentType":5126,
			"count":11952,
			"type":"VEC2"
		},
		{
			"bufferView":15,
			"componentType":5123,
			"count":71760,
			"type":"SCALAR"
		}
	],
	"bufferViews":[
		{
			"buffer":0,
			"byteLength":665676,
			"byteOffset":0,
			"target":34962
		},
		{
			"buffer":0,
			"byteLength":665676,
			"byteOffset":665676,
			"target":34962
		},
		{
			"buffer":0,
			"byteLength":443784,
			"byteOffset":1331352,
			"target":34962
		},
		{
			"buffer":0,
			"byteLength":480000,
			"byteOffset":1775136,
			"target":34963
		},
		{
			"buffer":0,
			"byteLength":19200,
			"byteOffset":2255136,
			"target":34962
		},
		{
			"buffer":0,
			"byteLength":19200,
			"byteOffset":2274336,
			"target":34962
		},
		{
			"buffer":0,
			"byteLength":12800,
			"byteOffset":2293536,
			"target":34962
		},
		{
			"buffer":0,
			"byteLength":9600,
			"byteOffset":2306336,
			"target":34963
		},
		{
			"buffer":0,
			"byteLength":128172,
			"byteOffset":2315936,
			"target":34962
		},
		{
			"buffer":0,
			"byteLength":128172,
			"byteOffset":2444108,
			"target":34962
		},
		{
			"buffer":0,
			"byteLength":85448,
			"byteOffset":2572280,
			"target":34962
		},
		{
			"buffer":0,
			"byteLength":108288,
			"byteOffset":2657728,
			"target":34963
		},
		{
			"buffer":0,
			"byteLength":143424,
			"byteOffset":2766016,
			"target":34962
		},
		{
			"buffer":0,
			"byteLength":143424,
			"byteOffset":2909440,
			"target":34962
		},
		{
			"buffer":0,
			"byteLength":95616,
			"byteOffset":3052864,
			"target":34962
		},
		{
			"buffer":0,
			"byteLength":143520,
			"byteOffset":3148480,
			"target":34963
		}
	],
	"samplers":[
		{
			"magFilter":9729,
			"minFilter":9987
		}
	],
	"buffers":[
		{
			"byteLength":3292000,
			"uri":"untitled.bin"
		}
	]
}
