{
	"asset":{
		"generator":"Khronos glTF Blender I/O v4.2.60",
		"version":"2.0"
	},
	"scene":0,
	"scenes":[
		{
			"name":"Scene",
			"nodes":[
				10
			]
		}
	],
	"nodes":[
		{
			"mesh":0,
			"name":"longe_grass_grass_0"
		},
		{
			"children":[
				0
			],
			"name":"longe_grass",
			"translation":[
				0,
				0,
				-5.448973388411105e-05
			]
		},
		{
			"mesh":1,
			"name":"white_flower_Leaf_0"
		},
		{
			"mesh":2,
			"name":"white_flower_Petal_0"
		},
		{
			"mesh":3,
			"name":"white_flower_Petal_0.001"
		},
		{
			"mesh":4,
			"name":"white_flower_Stem_0"
		},
		{
			"mesh":5,
			"name":"white_flower_Stigma_0"
		},
		{
			"children":[
				1,
				2,
				3,
				4,
				5,
				6
			],
			"name":"white_flower",
			"translation":[
				0,
				0,
				5.448973024613224e-05
			]
		},
		{
			"children":[
				7
			],
			"name":"RootNode"
		},
		{
			"children":[
				8
			],
			"name":"fab378064a2d4203844124ed59d7119d.fbx",
			"rotation":[
				0.70710688829422,
				0,
				0,
				0.7071066498756409
			]
		},
		{
			"children":[
				9
			],
			"name":"Sketchfab_model",
			"rotation":[
				-0.70710688829422,
				0,
				0,
				0.7071066498756409
			]
		}
	],
	"materials":[
		{
			"doubleSided":true,
			"name":"grass",
			"pbrMetallicRoughness":{
				"baseColorTexture":{
					"index":0
				},
				"metallicFactor":0,
				"roughnessFactor":0.6000000238418579
			}
		},
		{
			"doubleSided":true,
			"name":"Leaf",
			"pbrMetallicRoughness":{
				"baseColorTexture":{
					"index":1
				},
				"metallicFactor":0,
				"roughnessFactor":0.6000000238418579
			}
		},
		{
			"doubleSided":true,
			"name":"Petal",
			"pbrMetallicRoughness":{
				"baseColorTexture":{
					"index":2
				},
				"metallicRoughnessTexture":{
					"index":3
				},
				"roughnessFactor":0.6000000238418579
			}
		},
		{
			"doubleSided":true,
			"name":"Stem",
			"pbrMetallicRoughness":{
				"baseColorTexture":{
					"index":4
				},
				"metallicFactor":0,
				"roughnessFactor":0.6000000238418579
			}
		},
		{
			"doubleSided":true,
			"name":"Stigma",
			"pbrMetallicRoughness":{
				"baseColorTexture":{
					"index":5
				},
				"metallicFactor":0,
				"roughnessFactor":0.6000000238418579
			}
		}
	],
	"meshes":[
		{
			"name":"longe_grass_grass_0",
			"primitives":[
				{
					"attributes":{
						"POSITION":0,
						"NORMAL":1,
						"TEXCOORD_0":2
					},
					"indices":3,
					"material":0
				}
			]
		},
		{
			"name":"white_flower_Leaf_0",
			"primitives":[
				{
					"attributes":{
						"POSITION":4,
						"NORMAL":5,
						"TEXCOORD_0":6
					},
					"indices":7,
					"material":1
				}
			]
		},
		{
			"name":"white_flower_Petal_0",
			"primitives":[
				{
					"attributes":{
						"POSITION":8,
						"NORMAL":9,
						"TEXCOORD_0":10
					},
					"indices":11,
					"material":2
				}
			]
		},
		{
			"name":"white_flower_Petal_0.001",
			"primitives":[
				{
					"attributes":{
						"POSITION":12,
						"NORMAL":13,
						"TEXCOORD_0":14
					},
					"indices":15,
					"material":2
				}
			]
		},
		{
			"name":"white_flower_Stem_0",
			"primitives":[
				{
					"attributes":{
						"POSITION":16,
						"NORMAL":17,
						"TEXCOORD_0":18
					},
					"indices":19,
					"material":3
				}
			]
		},
		{
			"name":"white_flower_Stigma_0",
			"primitives":[
				{
					"attributes":{
						"POSITION":20,
						"NORMAL":21,
						"TEXCOORD_0":22
					},
					"indices":23,
					"material":4
				}
			]
		}
	],
	"textures":[
		{
			"sampler":0,
			"source":0
		},
		{
			"sampler":0,
			"source":1
		},
		{
			"sampler":0,
			"source":2
		},
		{
			"sampler":0,
			"source":3
		},
		{
			"sampler":0,
			"source":4
		},
		{
			"sampler":0,
			"source":5
		}
	],
	"images":[
		{
			"mimeType":"image/png",
			"name":"grass_baseColor",
			"uri":"grass_baseColor.png"
		},
		{
			"mimeType":"image/png",
			"name":"Leaf_baseColor",
			"uri":"Leaf_baseColor.png"
		},
		{
			"mimeType":"image/png",
			"name":"Petal_baseColor",
			"uri":"Petal_baseColor.png"
		},
		{
			"mimeType":"image/png",
			"name":"Petal_metallicRoughness",
			"uri":"Petal_metallicRoughness.png"
		},
		{
			"mimeType":"image/png",
			"name":"Stem_baseColor",
			"uri":"Stem_baseColor.png"
		},
		{
			"mimeType":"image/png",
			"name":"Stigma_baseColor",
			"uri":"Stigma_baseColor.png"
		}
	],
	"accessors":[
		{
			"bufferView":0,
			"componentType":5126,
			"count":37800,
			"max":[
				31.744855880737305,
				44.84284973144531,
				27.25603675842285
			],
			"min":[
				-28.23645782470703,
				-0.028853753581643105,
				-27.475574493408203
			],
			"type":"VEC3"
		},
		{
			"bufferView":1,
			"componentType":5126,
			"count":37800,
			"type":"VEC3"
		},
		{
			"bufferView":2,
			"componentType":5126,
			"count":37800,
			"type":"VEC2"
		},
		{
			"bufferView":3,
			"componentType":5123,
			"count":225600,
			"type":"SCALAR"
		},
		{
			"bufferView":4,
			"componentType":5126,
			"count":3400,
			"max":[
				22.49391746520996,
				68.80264282226562,
				19.97749900817871
			],
			"min":[
				-15.283758163452148,
				11.513322830200195,
				-15.53802490234375
			],
			"type":"VEC3"
		},
		{
			"bufferView":5,
			"componentType":5126,
			"count":3400,
			"type":"VEC3"
		},
		{
			"bufferView":6,
			"componentType":5126,
			"count":3400,
			"type":"VEC2"
		},
		{
			"bufferView":7,
			"componentType":5123,
			"count":20160,
			"type":"SCALAR"
		},
		{
			"bufferView":8,
			"componentType":5126,
			"count":65552,
			"max":[
				24.889202117919922,
				81.46990966796875,
				29.818788528442383
			],
			"min":[
				-21.922548294067383,
				50.25339889526367,
				-20.15683364868164
			],
			"type":"VEC3"
		},
		{
			"bufferView":9,
			"componentType":5126,
			"count":65552,
			"type":"VEC3"
		},
		{
			"bufferView":10,
			"componentType":5126,
			"count":65552,
			"type":"VEC2"
		},
		{
			"bufferView":11,
			"componentType":5125,
			"count":378216,
			"type":"SCALAR"
		},
		{
			"bufferView":12,
			"componentType":5126,
			"count":3173,
			"max":[
				24.888696670532227,
				81.24896240234375,
				29.091350555419922
			],
			"min":[
				-7.021670818328857,
				51.508094787597656,
				-9.437028884887695
			],
			"type":"VEC3"
		},
		{
			"bufferView":13,
			"componentType":5126,
			"count":3173,
			"type":"VEC3"
		},
		{
			"bufferView":14,
			"componentType":5126,
			"count":3173,
			"type":"VEC2"
		},
		{
			"bufferView":15,
			"componentType":5123,
			"count":14124,
			"type":"SCALAR"
		},
		{
			"bufferView":16,
			"componentType":5126,
			"count":5184,
			"max":[
				23.905643463134766,
				78.8543930053711,
				27.934789657592773
			],
			"min":[
				-20.837100982666016,
				-0.16892826557159424,
				-19.499195098876953
			],
			"type":"VEC3"
		},
		{
			"bufferView":17,
			"componentType":5126,
			"count":5184,
			"type":"VEC3"
		},
		{
			"bufferView":18,
			"componentType":5126,
			"count":5184,
			"type":"VEC2"
		},
		{
			"bufferView":19,
			"componentType":5123,
			"count":30192,
			"type":"SCALAR"
		},
		{
			"bufferView":20,
			"componentType":5126,
			"count":583,
			"max":[
				19.4381103515625,
				77.94454956054688,
				24.089385986328125
			],
			"min":[
				-15.838014602661133,
				53.99650192260742,
				-14.110383987426758
			],
			"type":"VEC3"
		},
		{
			"bufferView":21,
			"componentType":5126,
			"count":583,
			"type":"VEC3"
		},
		{
			"bufferView":22,
			"componentType":5126,
			"count":583,
			"type":"VEC2"
		},
		{
			"bufferView":23,
			"componentType":5123,
			"count":2688,
			"type":"SCALAR"
		}
	],
	"bufferViews":[
		{
			"buffer":0,
			"byteLength":453600,
			"byteOffset":0,
			"target":34962
		},
		{
			"buffer":0,
			"byteLength":453600,
			"byteOffset":453600,
			"target":34962
		},
		{
			"buffer":0,
			"byteLength":302400,
			"byteOffset":907200,
			"target":34962
		},
		{
			"buffer":0,
			"byteLength":451200,
			"byteOffset":1209600,
			"target":34963
		},
		{
			"buffer":0,
			"byteLength":40800,
			"byteOffset":1660800,
			"target":34962
		},
		{
			"buffer":0,
			"byteLength":40800,
			"byteOffset":1701600,
			"target":34962
		},
		{
			"buffer":0,
			"byteLength":27200,
			"byteOffset":1742400,
			"target":34962
		},
		{
			"buffer":0,
			"byteLength":40320,
			"byteOffset":1769600,
			"target":34963
		},
		{
			"buffer":0,
			"byteLength":786624,
			"byteOffset":1809920,
			"target":34962
		},
		{
			"buffer":0,
			"byteLength":786624,
			"byteOffset":2596544,
			"target":34962
		},
		{
			"buffer":0,
			"byteLength":524416,
			"byteOffset":3383168,
			"target":34962
		},
		{
			"buffer":0,
			"byteLength":1512864,
			"byteOffset":3907584,
			"target":34963
		},
		{
			"buffer":0,
			"byteLength":38076,
			"byteOffset":5420448,
			"target":34962
		},
		{
			"buffer":0,
			"byteLength":38076,
			"byteOffset":5458524,
			"target":34962
		},
		{
			"buffer":0,
			"byteLength":25384,
			"byteOffset":5496600,
			"target":34962
		},
		{
			"buffer":0,
			"byteLength":28248,
			"byteOffset":5521984,
			"target":34963
		},
		{
			"buffer":0,
			"byteLength":62208,
			"byteOffset":5550232,
			"target":34962
		},
		{
			"buffer":0,
			"byteLength":62208,
			"byteOffset":5612440,
			"target":34962
		},
		{
			"buffer":0,
			"byteLength":41472,
			"byteOffset":5674648,
			"target":34962
		},
		{
			"buffer":0,
			"byteLength":60384,
			"byteOffset":5716120,
			"target":34963
		},
		{
			"buffer":0,
			"byteLength":6996,
			"byteOffset":5776504,
			"target":34962
		},
		{
			"buffer":0,
			"byteLength":6996,
			"byteOffset":5783500,
			"target":34962
		},
		{
			"buffer":0,
			"byteLength":4664,
			"byteOffset":5790496,
			"target":34962
		},
		{
			"buffer":0,
			"byteLength":5376,
			"byteOffset":5795160,
			"target":34963
		}
	],
	"samplers":[
		{
			"magFilter":9729,
			"minFilter":9987
		}
	],
	"buffers":[
		{
			"byteLength":5800536,
			"uri":"wf.bin"
		}
	]
}
