{
	"asset":{
		"generator":"Khronos glTF Blender I/O v4.2.60",
		"version":"2.0"
	},
	"extensionsUsed":[
		"KHR_materials_specular"
	],
	"scene":0,
	"scenes":[
		{
			"name":"Scene",
			"nodes":[
				1,
				2
			]
		}
	],
	"nodes":[
		{
			"name":"RootNode"
		},
		{
			"children":[
				0
			],
			"name":"9334b4ce627f4b6ea43329b933d7cb41.fbx",
			"rotation":[
				0.70710688829422,
				0,
				0,
				0.7071066498756409
			],
			"scale":[
				0.009999999776482582,
				0.010000000707805157,
				0.010000000707805157
			]
		},
		{
			"mesh":0,
			"name":"Daisy_patch_big_1_LOD0_Daisy_main_mat_0",
			"rotation":[
				-0.7071068286895752,
				0,
				0,
				0.7071068286895752
			]
		}
	],
	"materials":[
		{
			"alphaCutoff":0.08597224205732346,
			"alphaMode":"MASK",
			"doubleSided":true,
			"extensions":{
				"KHR_materials_specular":{
					"specularFactor":0.10345812141895294
				}
			},
			"name":"Daisy_main_mat",
			"normalTexture":{
				"index":0
			},
			"pbrMetallicRoughness":{
				"baseColorTexture":{
					"index":1
				},
				"metallicFactor":0,
				"metallicRoughnessTexture":{
					"index":2
				}
			}
		}
	],
	"meshes":[
		{
			"name":"Daisy_patch_big_1_LOD0_Daisy_main_mat_0",
			"primitives":[
				{
					"attributes":{
						"POSITION":0,
						"NORMAL":1,
						"TEXCOORD_0":2,
						"TEXCOORD_1":3,
						"TEXCOORD_2":4
					},
					"indices":5,
					"material":0
				}
			]
		}
	],
	"textures":[
		{
			"sampler":0,
			"source":0
		},
		{
			"sampler":0,
			"source":1
		},
		{
			"sampler":0,
			"source":2
		}
	],
	"images":[
		{
			"mimeType":"image/jpeg",
			"name":"Daisy_main_mat_normal",
			"uri":"Daisy_main_mat_normal.jpg"
		},
		{
			"mimeType":"image/png",
			"name":"Daisy_main_mat_baseColor",
			"uri":"Daisy_main_mat_baseColor.png"
		},
		{
			"mimeType":"image/png",
			"name":"Daisy_main_mat_metallicRoughness",
			"uri":"Daisy_main_mat_metallicRoughness.png"
		}
	],
	"accessors":[
		{
			"bufferView":0,
			"componentType":5126,
			"count":3183,
			"max":[
				0.37768009305000305,
				0.3157866895198822,
				0.6918932795524597
			],
			"min":[
				-0.32994186878204346,
				-0.3599760830402374,
				-0.00014036080392543226
			],
			"type":"VEC3"
		},
		{
			"bufferView":1,
			"componentType":5126,
			"count":3183,
			"type":"VEC3"
		},
		{
			"bufferView":2,
			"componentType":5126,
			"count":3183,
			"type":"VEC2"
		},
		{
			"bufferView":3,
			"componentType":5126,
			"count":3183,
			"type":"VEC2"
		},
		{
			"bufferView":4,
			"componentType":5126,
			"count":3183,
			"type":"VEC2"
		},
		{
			"bufferView":5,
			"componentType":5123,
			"count":6651,
			"type":"SCALAR"
		}
	],
	"bufferViews":[
		{
			"buffer":0,
			"byteLength":38196,
			"byteOffset":0,
			"target":34962
		},
		{
			"buffer":0,
			"byteLength":38196,
			"byteOffset":38196,
			"target":34962
		},
		{
			"buffer":0,
			"byteLength":25464,
			"byteOffset":76392,
			"target":34962
		},
		{
			"buffer":0,
			"byteLength":25464,
			"byteOffset":101856,
			"target":34962
		},
		{
			"buffer":0,
			"byteLength":25464,
			"byteOffset":127320,
			"target":34962
		},
		{
			"buffer":0,
			"byteLength":13302,
			"byteOffset":152784,
			"target":34963
		}
	],
	"samplers":[
		{
			"magFilter":9729,
			"minFilter":9987
		}
	],
	"buffers":[
		{
			"byteLength":166088,
			"uri":"wf2.bin"
		}
	]
}
